<?xml version="1.0" encoding="utf-8"?>
<!-- Generator: Adobe Illustrator 19.2.1, SVG Export Plug-In . SVG Version: 6.00 Build 0)  -->
<svg version="1.1" id="Layer_1" xmlns="http://www.w3.org/2000/svg" xmlns:xlink="http://www.w3.org/1999/xlink" x="0px" y="0px"
	 viewBox="0 0 294.724 59.326" enable-background="new 0 0 294.724 59.326" xml:space="preserve">
<polygon fill="#F37368" points="219.959,21.013 219.959,58.391 207.887,58.391 207.887,15.174 "/>
<polygon fill="#F37368" points="58.429,59.326 96.502,39.488 92.55,29.984 49.458,51.47 "/>
<polygon fill="#F7A199" points="207.888,27.362 238.487,11.416 233.322,2.516 207.888,15.174 "/>
<polygon fill="#F7A199" points="121.708,18.047 121.708,58.391 110.199,58.391 110.199,0.936 "/>
<polygon fill="#F7A199" points="75.869,15.825 58.429,59.327 49.458,51.47 70.243,0.936 "/>
<polygon fill="#F04939" points="70.243,0.936 82.127,0.936 104.117,58.391 91.952,58.391 "/>
<polygon fill="#F04939" points="123.493,0.936 148.845,40.185 148.845,58.391 110.199,0.936 "/>
<rect x="170.552" y="0.935" fill="#F04939" width="11.978" height="57.455"/>
<polygon fill="#F04939" points="207.888,11.416 189.454,11.416 189.454,0.936 232.404,0.936 238.487,11.416 219.96,11.416 "/>
<polyline fill="#F7A199" points="273.857,36.588 273.857,58.391 261.973,58.391 261.973,36.588 "/>
<polygon fill="#F04939" points="261.973,36.588 282.092,0.937 294.724,0.937 273.857,36.588 "/>
<polygon fill="#F37368" points="261.973,36.588 241.293,0.937 254.3,0.937 268.306,25.366 "/>
<path fill="#F04939" d="M4.825,7.568c0,7.975,4.942,12.758,14.826,15.265l10.48,2.432c9.358,2.153,15.065,7.487,15.065,16.188
	c0,4.143-1.268,7.676-3.488,10.481c0-8.68-4.494-13.373-15.32-16.188l-10.293-2.339C7.86,31.535,1.497,27.137,1.497,17.686
	C1.497,13.81,2.695,10.365,4.825,7.568"/>
<polygon fill="#F7A199" points="148.845,37.243 148.845,0.936 160.354,0.936 160.354,58.391 148.845,58.391 "/>
<path fill="#F7A199" d="M35.274,39.33c4.467,2.863,6.434,6.861,6.434,12.604c-3.748,4.735-10.207,7.392-17.847,7.392
	C11.042,59.326,1.966,52.963,0,42.015h12.352c1.591,5.053,5.801,7.392,11.416,7.392C30.628,49.407,35.184,45.745,35.274,39.33"/>
<path fill="#F7A199" d="M11.248,19.428c-4.284-2.745-6.423-6.61-6.423-11.86C8.403,2.869,14.61,0,22.177,0
	c13.101,0,20.68,6.925,22.552,16.657H32.845c-1.31-3.837-4.586-6.832-10.574-6.832C15.883,9.825,11.521,13.54,11.248,19.428"/>
</svg>
